<svg id="svg" version="1.1" xmlns="http://www.w3.org/2000/svg" xmlns:xlink="http://www.w3.org/1999/xlink" width="400" height="345.3815261044177" viewBox="0, 0, 400,345.3815261044177"><g id="svgg"><path id="path0" d="M145.596 95.929 C 141.449 96.323,133.509 97.507,131.606 98.015 C 129.765 98.507,125.303 99.863,124.525 100.167 C 119.507 102.129,118.785 102.466,114.709 104.747 C 113.663 105.332,111.350 106.950,110.881 107.425 C 110.786 107.521,109.931 108.296,108.981 109.148 C 105.537 112.237,100.518 119.760,100.518 121.834 C 100.518 122.084,100.381 122.559,100.214 122.889 C 98.649 125.970,98.423 135.666,99.761 142.314 C 101.354 150.229,109.314 159.461,117.906 163.357 C 121.438 164.958,126.210 166.839,126.741 166.839 C 127.061 166.839,127.471 166.975,127.651 167.140 C 127.832 167.306,128.912 167.711,130.052 168.039 C 131.192 168.368,132.513 168.761,132.988 168.912 C 133.463 169.063,134.784 169.448,135.924 169.768 C 137.064 170.087,138.385 170.474,138.860 170.627 C 139.335 170.779,140.345 171.076,141.105 171.286 C 143.838 172.040,146.299 172.779,146.978 173.049 C 147.358 173.200,148.368 173.518,149.223 173.755 C 150.078 173.992,151.865 174.531,153.195 174.951 C 154.525 175.372,156.235 175.889,156.995 176.100 C 157.755 176.311,159.698 176.880,161.313 177.364 C 162.927 177.849,164.870 178.421,165.630 178.636 C 168.693 179.503,172.574 180.744,173.139 181.037 C 173.469 181.207,173.976 181.347,174.266 181.347 C 174.556 181.347,175.063 181.484,175.393 181.651 C 175.723 181.818,177.003 182.400,178.238 182.946 C 180.691 184.029,184.111 187.119,184.111 188.251 C 184.111 188.611,184.266 189.002,184.456 189.119 C 184.882 189.383,184.916 194.603,184.496 195.428 C 184.328 195.758,183.985 196.468,183.732 197.005 C 183.158 198.228,180.382 201.036,179.747 201.036 C 179.487 201.036,179.275 201.174,179.275 201.343 C 179.275 201.934,174.504 203.674,170.466 204.556 C 167.656 205.170,152.662 205.165,149.568 204.550 C 142.803 203.205,138.714 201.550,135.638 198.912 C 133.901 197.423,132.297 195.212,132.297 194.307 C 132.297 194.019,132.162 193.782,131.997 193.782 C 131.831 193.782,131.616 193.122,131.518 192.314 C 131.419 191.507,131.169 190.417,130.962 189.893 L 130.585 188.940 113.911 189.029 L 97.237 189.119 97.274 192.401 C 97.380 201.696,102.982 212.004,110.829 217.342 C 111.712 217.943,112.513 218.524,112.608 218.633 C 113.690 219.878,124.255 224.874,125.800 224.871 C 126.121 224.871,126.480 225.026,126.598 225.216 C 126.715 225.406,127.259 225.561,127.807 225.561 C 128.354 225.561,128.888 225.700,128.992 225.869 C 129.096 226.038,129.688 226.258,130.308 226.358 C 130.927 226.459,132.599 226.794,134.024 227.104 C 147.800 230.100,172.624 229.690,186.874 226.231 C 187.539 226.070,188.549 225.841,189.119 225.723 C 189.689 225.606,190.466 225.379,190.846 225.221 C 191.226 225.062,193.092 224.356,194.991 223.653 C 207.606 218.980,214.708 211.681,217.838 200.173 C 218.553 197.546,218.657 185.984,217.993 183.074 C 217.068 179.024,216.053 176.119,215.025 174.582 C 214.655 174.028,214.115 173.160,213.825 172.652 C 211.445 168.481,204.365 163.329,197.578 160.829 C 196.155 160.304,194.680 159.752,194.301 159.600 C 193.639 159.337,188.724 157.808,186.183 157.075 C 185.518 156.883,184.663 156.609,184.283 156.466 C 183.903 156.323,182.193 155.781,180.484 155.262 C 178.774 154.743,176.986 154.194,176.511 154.043 C 176.036 153.892,174.715 153.507,173.575 153.188 C 172.435 152.869,171.192 152.486,170.812 152.336 C 170.432 152.187,169.421 151.876,168.566 151.644 C 167.712 151.413,166.623 151.069,166.149 150.881 C 165.133 150.479,163.140 149.843,160.967 149.228 C 160.112 148.986,158.791 148.585,158.031 148.337 C 157.271 148.089,155.561 147.561,154.231 147.163 C 147.328 145.098,145.891 144.644,145.341 144.356 C 145.012 144.183,144.511 144.041,144.228 144.041 C 143.587 144.041,139.765 142.267,139.609 141.896 C 139.545 141.746,139.274 141.623,139.007 141.623 C 138.017 141.623,134.211 137.381,133.585 135.579 C 130.209 125.865,137.518 119.951,153.334 119.600 C 169.580 119.239,182.729 125.456,182.729 133.498 C 182.729 135.894,181.677 135.752,199.408 135.747 C 218.635 135.741,216.853 136.055,216.690 132.703 C 216.440 127.540,215.398 123.478,213.041 118.480 C 211.205 114.586,205.787 108.335,202.418 106.225 C 201.563 105.689,200.786 105.157,200.691 105.043 C 200.596 104.929,200.207 104.666,199.827 104.459 C 199.447 104.252,198.437 103.702,197.582 103.237 C 194.407 101.508,184.951 98.100,183.330 98.100 C 182.885 98.100,182.374 97.961,182.193 97.790 C 182.013 97.620,181.244 97.399,180.484 97.299 C 168.938 95.790,167.629 95.703,157.340 95.750 C 151.641 95.777,146.356 95.857,145.596 95.929 M264.413 98.532 C 264.325 98.769,264.194 118.472,264.122 142.314 C 263.977 189.706,263.972 189.842,261.896 194.128 C 258.486 201.171,249.526 204.430,239.206 202.379 C 238.256 202.190,236.701 201.900,235.751 201.733 C 232.916 201.235,231.365 200.826,229.361 200.048 C 228.316 199.642,227.111 199.309,226.684 199.309 L 225.907 199.309 225.907 211.168 L 225.907 223.026 228.411 224.295 C 229.788 224.993,231.112 225.564,231.352 225.563 C 231.592 225.562,232.058 225.698,232.388 225.864 C 237.845 228.621,259.456 230.061,267.358 228.195 C 280.608 225.064,288.908 218.195,294.123 206.045 C 294.450 205.285,294.850 204.352,295.013 203.972 C 295.407 203.054,296.903 196.340,297.438 193.092 C 298.021 189.550,298.331 99.868,297.764 98.809 C 297.295 97.933,264.734 97.662,264.413 98.532 " stroke="none" fill="#050505" fill-rule="evenodd"></path><path id="path1" d="M0.000 172.712 L 0.000 345.423 200.000 345.423 L 400.000 345.423 400.000 172.712 L 400.000 0.000 200.000 0.000 L 0.000 0.000 0.000 172.712 M171.675 95.281 C 173.480 95.491,176.123 95.908,177.547 96.209 C 178.972 96.509,180.760 96.840,181.520 96.945 C 182.280 97.049,183.049 97.274,183.230 97.445 C 183.410 97.615,184.073 97.755,184.702 97.755 C 185.332 97.755,186.117 97.903,186.447 98.083 C 186.777 98.264,188.368 98.819,189.983 99.317 C 192.728 100.163,195.811 101.410,197.409 102.320 C 197.789 102.536,198.413 102.880,198.796 103.084 C 199.179 103.287,199.980 103.804,200.576 104.231 C 201.173 104.659,201.831 105.009,202.040 105.009 C 202.248 105.009,202.418 105.154,202.418 105.331 C 202.418 105.508,202.735 105.754,203.122 105.876 C 205.004 106.474,213.126 115.792,213.126 117.354 C 213.126 117.593,213.251 117.789,213.403 117.789 C 213.556 117.789,213.966 118.605,214.315 119.603 C 214.664 120.600,215.083 121.564,215.247 121.744 C 215.410 121.925,215.544 122.421,215.544 122.847 C 215.544 123.272,215.699 123.717,215.889 123.834 C 216.079 123.952,216.235 124.651,216.235 125.389 C 216.235 126.126,216.367 126.811,216.528 126.911 C 216.805 127.082,217.313 131.514,217.403 134.542 L 217.444 135.924 200.212 136.014 C 181.183 136.113,182.038 136.215,182.038 133.826 C 182.038 131.364,179.442 127.379,176.835 125.839 C 176.277 125.509,175.820 125.118,175.820 124.969 C 175.820 124.820,175.587 124.698,175.302 124.698 C 175.017 124.698,174.784 124.542,174.784 124.352 C 174.784 124.162,174.600 124.007,174.375 124.007 C 174.150 124.007,173.285 123.677,172.454 123.275 C 166.021 120.161,147.761 119.366,141.451 121.925 C 137.477 123.536,134.370 126.170,134.370 127.928 C 134.370 128.219,134.214 128.553,134.024 128.670 C 133.834 128.788,133.681 129.924,133.684 131.195 C 133.695 135.926,135.957 139.434,140.415 141.630 C 140.984 141.911,141.528 142.220,141.623 142.317 C 141.718 142.413,142.651 142.777,143.696 143.124 C 144.741 143.471,145.907 143.882,146.287 144.038 C 146.667 144.194,147.988 144.581,149.223 144.898 C 150.458 145.215,152.323 145.751,153.368 146.090 C 154.413 146.428,156.667 147.148,158.377 147.690 C 160.086 148.231,161.633 148.797,161.813 148.948 C 161.994 149.099,162.568 149.223,163.088 149.223 C 163.609 149.223,164.131 149.378,164.249 149.568 C 164.366 149.758,164.729 149.914,165.056 149.914 C 165.382 149.914,166.811 150.280,168.231 150.728 C 169.650 151.176,172.211 151.959,173.921 152.469 C 175.630 152.979,177.299 153.545,177.629 153.727 C 177.959 153.910,178.544 154.059,178.929 154.059 C 179.314 154.059,179.899 154.195,180.229 154.362 C 180.559 154.529,181.684 154.931,182.729 155.255 C 183.774 155.579,184.940 155.969,185.320 156.121 C 185.699 156.273,186.632 156.564,187.392 156.767 C 189.513 157.334,196.632 159.566,197.409 159.908 C 206.778 164.032,212.500 168.375,215.023 173.276 C 215.401 174.010,215.795 174.689,215.898 174.784 C 216.061 174.935,217.399 178.115,218.149 180.138 C 219.442 183.620,219.532 200.798,218.262 201.583 C 218.097 201.685,217.957 202.108,217.951 202.525 C 217.945 202.941,217.558 204.059,217.091 205.009 C 216.624 205.959,216.240 206.930,216.238 207.168 C 216.236 207.405,216.117 207.599,215.974 207.599 C 215.830 207.599,215.504 208.070,215.249 208.646 C 214.234 210.939,210.111 215.627,207.055 217.962 C 204.796 219.688,203.850 220.315,202.850 220.751 C 202.232 221.019,201.727 221.330,201.727 221.440 C 201.727 221.616,199.675 222.599,196.373 224.004 C 195.803 224.247,194.715 224.640,193.955 224.879 C 193.195 225.117,192.263 225.434,191.883 225.583 C 191.503 225.733,190.803 225.931,190.328 226.025 C 189.853 226.119,188.610 226.460,187.565 226.784 C 186.520 227.109,184.965 227.447,184.111 227.537 C 183.256 227.627,182.408 227.841,182.228 228.013 C 182.047 228.184,181.107 228.325,180.138 228.325 C 179.169 228.325,178.229 228.468,178.048 228.644 C 176.747 229.911,152.090 230.178,141.969 229.035 C 135.696 228.327,128.668 226.883,127.938 226.154 C 127.803 226.018,127.327 225.907,126.881 225.907 C 126.435 225.907,125.800 225.770,125.470 225.604 C 125.140 225.437,124.249 225.108,123.489 224.873 C 120.290 223.883,115.122 221.297,112.717 219.483 C 112.113 219.026,111.531 218.653,111.426 218.653 C 110.289 218.653,103.306 211.532,101.577 208.610 C 98.123 202.771,96.762 198.370,96.486 192.142 L 96.329 188.601 113.726 188.601 C 132.889 188.601,131.952 188.485,131.952 190.854 C 131.952 194.896,135.770 199.130,141.796 201.772 C 149.642 205.211,170.673 205.166,177.284 201.696 C 177.614 201.523,178.119 201.382,178.406 201.382 C 178.694 201.382,178.930 201.265,178.930 201.123 C 178.931 200.980,179.412 200.553,179.999 200.173 C 181.628 199.118,183.325 196.704,183.951 194.548 C 184.484 192.717,184.479 192.165,183.911 189.349 C 183.598 187.800,180.574 184.746,178.394 183.776 C 177.453 183.357,176.052 182.717,175.280 182.354 C 174.507 181.990,173.611 181.693,173.289 181.693 C 172.966 181.693,172.432 181.552,172.102 181.381 C 171.773 181.209,170.881 180.903,170.121 180.699 C 166.788 179.807,164.544 179.170,163.903 178.934 C 163.523 178.795,162.280 178.410,161.140 178.080 C 160.000 177.749,158.797 177.339,158.468 177.168 C 158.138 176.997,157.486 176.857,157.020 176.857 C 156.554 176.857,156.076 176.701,155.959 176.511 C 155.841 176.321,155.364 176.166,154.897 176.166 C 154.431 176.166,153.779 176.024,153.450 175.850 C 152.370 175.283,143.214 172.576,140.842 172.123 C 140.317 172.023,139.803 171.804,139.699 171.635 C 139.595 171.467,139.129 171.330,138.662 171.330 C 138.196 171.330,137.545 171.195,137.215 171.031 C 136.240 170.545,134.268 169.882,133.243 169.696 C 132.718 169.601,132.204 169.386,132.100 169.218 C 131.996 169.049,131.578 168.912,131.172 168.912 C 128.712 168.912,117.961 164.426,113.268 161.441 C 109.136 158.813,104.739 154.516,102.936 151.343 C 102.651 150.842,102.327 150.354,102.217 150.259 C 101.843 149.939,100.173 146.162,100.173 145.638 C 100.173 145.352,100.034 145.033,99.865 144.929 C 99.696 144.824,99.478 144.232,99.381 143.613 C 99.283 142.994,99.044 141.865,98.850 141.105 C 98.166 138.431,97.662 133.766,97.859 131.919 C 98.397 126.861,99.009 123.902,99.870 122.198 C 100.036 121.868,100.173 121.374,100.173 121.100 C 100.173 118.494,106.037 110.300,110.135 107.179 C 110.579 106.840,111.379 106.213,111.912 105.786 C 112.444 105.358,112.972 105.009,113.083 105.009 C 113.194 105.009,114.104 104.487,115.106 103.850 C 117.315 102.443,121.990 100.173,122.679 100.173 C 122.953 100.173,123.326 100.049,123.506 99.898 C 123.687 99.747,124.767 99.342,125.907 98.998 C 127.047 98.654,128.336 98.233,128.773 98.063 C 129.209 97.894,129.916 97.755,130.344 97.755 C 130.772 97.755,131.270 97.614,131.451 97.443 C 131.631 97.271,132.478 97.052,133.333 96.955 C 134.886 96.779,137.382 96.311,140.160 95.674 C 140.971 95.489,142.680 95.321,143.960 95.302 C 145.240 95.283,146.675 95.140,147.150 94.984 C 148.364 94.585,167.709 94.819,171.675 95.281 M298.408 98.228 C 298.948 98.878,298.705 189.747,298.154 193.264 C 297.946 194.594,297.684 196.382,297.573 197.237 C 297.461 198.092,297.245 199.102,297.093 199.482 C 296.940 199.862,296.529 201.105,296.179 202.245 C 295.828 203.385,295.436 204.551,295.307 204.836 C 295.178 205.121,294.926 205.743,294.748 206.218 C 291.804 214.051,285.403 221.316,278.238 224.954 C 275.046 226.575,272.525 227.634,271.859 227.634 C 271.495 227.634,271.112 227.772,271.008 227.941 C 270.904 228.110,270.312 228.337,269.692 228.445 C 269.073 228.553,267.712 228.803,266.667 229.000 C 260.418 230.181,241.591 229.925,240.259 228.641 C 240.079 228.467,239.272 228.325,238.466 228.325 C 237.660 228.325,236.905 228.169,236.788 227.979 C 236.670 227.789,236.237 227.634,235.825 227.634 C 234.003 227.634,226.135 224.215,225.583 223.184 C 225.087 222.258,225.079 199.866,225.573 198.941 C 225.952 198.234,227.102 198.037,227.461 198.618 C 227.579 198.808,228.028 198.964,228.460 198.964 C 228.892 198.964,229.357 199.075,229.492 199.210 C 229.958 199.676,232.990 200.690,233.917 200.691 C 234.429 200.691,234.931 200.827,235.035 200.994 C 235.729 202.117,253.541 202.123,253.541 201.000 C 253.541 200.830,253.777 200.691,254.066 200.691 C 256.654 200.691,261.676 194.656,262.705 190.312 C 262.860 189.656,263.077 168.756,263.186 143.869 C 263.296 118.981,263.511 98.424,263.665 98.187 C 264.095 97.521,297.855 97.561,298.408 98.228 " stroke="none" fill="#fbfbb3" fill-rule="evenodd"></path><path id="path2" d="M150.173 95.235 C 150.600 95.317,151.300 95.317,151.727 95.235 C 152.155 95.153,151.805 95.085,150.950 95.085 C 150.095 95.085,149.745 95.153,150.173 95.235 M162.608 95.241 C 163.225 95.318,164.236 95.318,164.853 95.241 C 165.471 95.165,164.965 95.102,163.731 95.102 C 162.496 95.102,161.991 95.165,162.608 95.241 M298.268 143.696 C 298.268 168.489,298.309 178.631,298.359 166.235 C 298.409 153.839,298.409 133.554,298.359 121.157 C 298.309 108.761,298.268 118.903,298.268 143.696 M158.463 120.106 C 158.890 120.188,159.590 120.188,160.017 120.106 C 160.445 120.023,160.095 119.956,159.240 119.956 C 158.385 119.956,158.035 120.023,158.463 120.106 M98.204 133.333 C 98.204 134.378,98.268 134.806,98.348 134.283 C 98.427 133.761,98.427 132.906,98.348 132.383 C 98.268 131.861,98.204 132.288,98.204 133.333 M181.002 184.909 C 181.002 184.969,181.507 185.474,182.124 186.032 L 183.247 187.047 182.232 185.924 C 181.287 184.878,181.002 184.643,181.002 184.909 M218.752 187.047 C 218.754 187.997,218.821 188.344,218.901 187.819 C 218.980 187.294,218.978 186.517,218.896 186.092 C 218.814 185.667,218.749 186.097,218.752 187.047 M184.555 192.228 C 184.557 193.178,184.624 193.525,184.704 193.000 C 184.783 192.475,184.781 191.698,184.699 191.273 C 184.617 190.848,184.552 191.278,184.555 192.228 M156.045 229.614 C 156.852 229.687,158.174 229.687,158.981 229.614 C 159.788 229.541,159.128 229.482,157.513 229.482 C 155.898 229.482,155.237 229.541,156.045 229.614 M254.836 229.611 C 255.453 229.687,256.464 229.687,257.081 229.611 C 257.699 229.534,257.193 229.472,255.959 229.472 C 254.724 229.472,254.218 229.534,254.836 229.611 " stroke="none" fill="#7c7c5a" fill-rule="evenodd"></path><path id="path3" d="M147.841 95.398 C 145.276 95.567,142.556 95.848,141.796 96.024 L 140.415 96.344 141.969 96.177 C 142.824 96.085,149.197 95.900,156.131 95.767 C 165.895 95.579,167.843 95.474,164.767 95.303 C 159.326 95.001,153.393 95.034,147.841 95.398 M170.466 96.044 C 171.416 96.191,172.815 96.307,173.575 96.300 L 174.957 96.287 173.402 96.010 C 172.547 95.858,171.149 95.743,170.294 95.754 L 168.739 95.775 170.466 96.044 M138.083 96.617 C 138.510 96.699,139.210 96.699,139.637 96.617 C 140.065 96.535,139.715 96.467,138.860 96.467 C 138.005 96.467,137.655 96.535,138.083 96.617 M175.734 96.617 C 176.161 96.699,176.861 96.699,177.288 96.617 C 177.716 96.535,177.366 96.467,176.511 96.467 C 175.656 96.467,175.307 96.535,175.734 96.617 M135.406 97.064 C 134.712 97.286,134.678 97.342,135.233 97.351 C 135.613 97.356,136.235 97.227,136.615 97.064 C 137.495 96.686,136.587 96.686,135.406 97.064 M178.756 97.064 C 179.136 97.227,179.758 97.356,180.138 97.351 C 180.694 97.342,180.660 97.286,179.965 97.064 C 178.784 96.686,177.876 96.686,178.756 97.064 M264.069 98.532 C 263.852 99.124,263.687 186.169,263.903 185.953 C 264.080 185.776,264.500 98.100,264.324 98.100 C 264.271 98.100,264.156 98.294,264.069 98.532 M126.079 99.331 C 125.415 99.582,125.104 99.795,125.389 99.803 C 125.674 99.810,126.528 99.593,127.288 99.319 C 128.048 99.045,128.359 98.833,127.979 98.847 C 127.599 98.862,126.744 99.079,126.079 99.331 M188.897 99.690 C 190.295 100.168,191.497 100.501,191.568 100.430 C 191.739 100.259,187.440 98.787,186.829 98.806 C 186.569 98.814,187.499 99.212,188.897 99.690 M193.741 101.389 C 194.763 101.874,195.663 102.207,195.741 102.129 C 195.820 102.050,195.217 101.717,194.401 101.387 C 192.038 100.432,191.725 100.433,193.741 101.389 M119.862 101.727 C 119.387 101.999,119.154 102.221,119.344 102.221 C 119.534 102.221,120.078 101.999,120.553 101.727 C 121.028 101.456,121.261 101.233,121.071 101.233 C 120.881 101.233,120.337 101.456,119.862 101.727 M115.727 103.817 C 115.067 104.282,114.631 104.663,114.757 104.663 C 115.059 104.663,117.444 103.253,117.444 103.075 C 117.444 102.764,116.861 103.015,115.727 103.817 M197.582 103.075 C 197.582 103.255,199.968 104.663,200.273 104.663 C 200.401 104.663,199.934 104.275,199.235 103.800 C 198.011 102.968,197.582 102.780,197.582 103.075 M202.245 106.104 C 204.613 107.587,209.625 112.732,211.220 115.316 C 212.762 117.815,213.280 118.189,211.893 115.803 C 209.711 112.050,202.526 104.989,200.915 105.015 C 200.697 105.019,201.295 105.509,202.245 106.104 M112.090 106.248 L 111.054 107.138 112.176 106.395 C 112.794 105.987,113.299 105.585,113.299 105.503 C 113.299 105.245,113.153 105.335,112.090 106.248 M108.782 108.932 C 106.794 110.766,103.627 114.391,103.627 114.833 C 103.627 114.970,104.443 114.094,105.440 112.885 C 106.867 111.156,109.907 108.143,110.852 107.521 C 110.931 107.469,110.931 107.366,110.852 107.291 C 110.773 107.216,109.842 107.955,108.782 108.932 M101.700 118.351 C 101.194 119.467,100.712 120.497,100.629 120.639 C 100.545 120.782,100.558 120.898,100.656 120.898 C 100.918 120.898,102.947 116.649,102.770 116.472 C 102.688 116.390,102.206 117.235,101.700 118.351 M212.781 118.077 C 212.781 118.235,212.897 118.482,213.040 118.624 C 213.182 118.766,213.562 119.531,213.884 120.322 C 214.206 121.114,214.478 121.580,214.488 121.359 C 214.513 120.842,213.211 117.789,212.966 117.789 C 212.864 117.789,212.781 117.919,212.781 118.077 M146.984 119.819 C 146.418 119.940,149.293 120.038,153.374 120.037 C 157.455 120.036,161.727 120.143,162.867 120.276 L 164.940 120.517 162.867 120.032 C 160.723 119.530,149.065 119.373,146.984 119.819 M142.487 120.898 C 142.052 121.085,141.988 121.195,142.314 121.195 C 142.599 121.195,143.143 121.061,143.523 120.898 C 143.959 120.711,144.023 120.601,143.696 120.601 C 143.411 120.601,142.867 120.735,142.487 120.898 M166.321 120.898 C 167.354 121.342,168.217 121.342,167.530 120.898 C 167.245 120.714,166.701 120.572,166.321 120.582 L 165.630 120.601 166.321 120.898 M171.456 122.455 C 172.000 122.738,172.622 122.970,172.837 122.969 C 173.053 122.967,172.784 122.734,172.240 122.450 C 171.696 122.167,171.074 121.935,170.859 121.936 C 170.643 121.938,170.912 122.171,171.456 122.455 M136.524 123.873 C 135.097 125.070,133.070 128.003,133.425 128.358 C 133.521 128.455,133.948 127.814,134.374 126.935 C 134.832 125.987,135.846 124.784,136.862 123.980 C 137.805 123.235,138.446 122.628,138.287 122.632 C 138.127 122.636,137.334 123.194,136.524 123.873 M99.181 125.313 C 98.940 126.210,98.687 129.197,98.618 131.952 L 98.493 136.960 98.792 131.958 C 98.957 129.206,99.279 126.287,99.507 125.471 C 99.736 124.655,99.854 123.919,99.771 123.835 C 99.687 123.752,99.422 124.417,99.181 125.313 M176.684 125.090 C 178.408 126.382,180.908 129.038,181.167 129.854 C 181.301 130.277,181.485 130.547,181.577 130.455 C 182.158 129.874,178.427 125.672,176.490 124.726 C 175.844 124.410,175.889 124.495,176.684 125.090 M215.938 127.116 C 215.938 127.401,216.072 127.945,216.235 128.325 C 216.422 128.760,216.532 128.824,216.532 128.497 C 216.532 128.212,216.398 127.668,216.235 127.288 C 216.048 126.853,215.938 126.789,215.938 127.116 M133.059 131.434 C 133.033 133.239,133.195 134.556,133.527 135.233 C 133.806 135.803,133.929 135.959,133.801 135.579 C 133.672 135.199,133.462 133.489,133.333 131.779 L 133.100 128.670 133.059 131.434 M216.696 131.952 C 216.696 133.377,216.757 133.959,216.832 133.247 C 216.906 132.535,216.906 131.369,216.832 130.656 C 216.757 129.944,216.696 130.527,216.696 131.952 M182.427 133.354 C 182.403 134.030,182.628 134.885,182.927 135.253 C 183.226 135.622,183.348 135.691,183.198 135.406 C 183.048 135.121,182.823 134.266,182.698 133.506 L 182.470 132.124 182.427 133.354 M134.024 136.687 C 134.024 136.906,134.763 137.843,135.665 138.769 C 136.567 139.696,136.824 139.901,136.235 139.225 C 135.646 138.549,134.907 137.612,134.594 137.142 C 134.281 136.673,134.024 136.468,134.024 136.687 M98.966 138.860 C 99.026 139.905,99.238 141.382,99.436 142.142 L 99.795 143.523 99.623 142.142 C 99.529 141.382,99.317 139.905,99.154 138.860 L 98.856 136.960 98.966 138.860 M142.660 143.523 C 143.135 143.795,143.834 144.016,144.214 144.014 C 144.594 144.012,144.283 143.787,143.523 143.513 C 141.793 142.890,141.556 142.893,142.660 143.523 M149.568 145.769 C 149.853 145.953,150.320 146.103,150.604 146.103 C 151.065 146.103,151.065 146.066,150.604 145.769 C 150.320 145.584,149.853 145.434,149.568 145.434 C 149.108 145.434,149.108 145.471,149.568 145.769 M152.677 146.584 C 152.677 146.839,156.522 147.910,156.721 147.712 C 156.815 147.618,156.216 147.366,155.389 147.152 C 154.562 146.939,153.614 146.685,153.282 146.588 C 152.949 146.492,152.677 146.490,152.677 146.584 M101.209 147.310 C 101.209 147.684,103.289 151.295,103.505 151.295 C 103.600 151.295,103.175 150.402,102.560 149.309 C 101.286 147.047,101.209 146.933,101.209 147.310 M158.157 148.373 C 158.796 148.650,159.574 148.871,159.884 148.862 C 160.195 148.854,159.827 148.623,159.067 148.349 C 157.277 147.704,156.655 147.720,158.157 148.373 M165.602 150.628 C 166.257 151.045,167.937 151.552,169.603 151.836 C 170.592 152.005,169.194 151.463,167.358 150.965 C 166.788 150.810,166.010 150.577,165.630 150.446 C 164.962 150.215,164.961 150.221,165.602 150.628 M103.941 152.274 C 104.128 152.622,104.555 153.127,104.890 153.396 C 105.323 153.744,105.271 153.560,104.713 152.763 C 103.860 151.547,103.394 151.252,103.941 152.274 M170.812 152.332 C 170.929 152.522,171.366 152.666,171.782 152.653 C 172.512 152.629,172.514 152.618,171.848 152.332 C 170.897 151.923,170.559 151.923,170.812 152.332 M173.057 152.993 C 173.342 153.156,174.119 153.383,174.784 153.498 L 175.993 153.707 174.784 153.218 C 173.380 152.651,172.182 152.495,173.057 152.993 M176.511 154.059 C 176.796 154.243,177.263 154.394,177.547 154.394 C 178.008 154.394,178.008 154.356,177.547 154.059 C 177.263 153.875,176.796 153.724,176.511 153.724 C 176.051 153.724,176.051 153.761,176.511 154.059 M108.451 157.113 C 109.870 158.440,111.502 159.783,112.078 160.098 L 113.126 160.671 112.090 159.872 C 111.520 159.433,109.888 158.090,108.463 156.887 L 105.872 154.702 108.451 157.113 M181.646 155.627 C 182.285 155.904,183.062 156.124,183.373 156.116 C 183.684 156.108,183.316 155.877,182.556 155.603 C 180.766 154.958,180.143 154.974,181.646 155.627 M191.537 158.732 C 192.297 159.006,193.152 159.225,193.437 159.220 C 193.722 159.214,193.333 158.986,192.573 158.712 C 191.813 158.438,190.959 158.219,190.674 158.224 C 190.389 158.230,190.777 158.458,191.537 158.732 M198.572 161.153 C 199.211 161.431,199.833 161.653,199.953 161.646 C 200.403 161.621,198.425 160.646,197.927 160.648 C 197.642 160.648,197.932 160.876,198.572 161.153 M114.509 161.660 C 114.740 162.034,116.753 163.155,116.753 162.910 C 116.753 162.829,116.200 162.436,115.523 162.037 C 114.847 161.638,114.390 161.468,114.509 161.660 M201.727 162.515 C 201.727 162.606,202.388 163.013,203.195 163.420 C 204.003 163.827,205.674 164.854,206.908 165.702 C 208.425 166.744,208.761 166.898,207.945 166.178 C 206.298 164.726,201.727 162.033,201.727 162.515 M120.725 164.910 C 122.055 165.532,123.998 166.317,125.043 166.654 C 126.088 166.992,127.213 167.405,127.543 167.572 C 127.873 167.739,128.339 167.875,128.579 167.874 C 128.819 167.872,128.570 167.639,128.026 167.355 C 127.482 167.072,126.836 166.839,126.590 166.839 C 126.345 166.839,124.474 166.140,122.434 165.285 C 118.113 163.475,117.252 163.286,120.725 164.910 M209.850 167.865 C 210.973 169.263,211.399 169.670,211.399 169.347 C 211.399 169.179,210.896 168.585,210.282 168.027 C 209.385 167.213,209.300 167.181,209.850 167.865 M134.888 169.785 C 135.648 170.059,136.503 170.279,136.788 170.273 C 137.073 170.268,136.684 170.039,135.924 169.766 C 135.164 169.492,134.309 169.272,134.024 169.278 C 133.739 169.283,134.128 169.512,134.888 169.785 M211.744 169.830 C 211.744 170.019,212.172 170.550,212.694 171.011 L 213.644 171.848 212.781 170.812 C 212.306 170.242,211.878 169.711,211.831 169.632 C 211.783 169.552,211.744 169.642,211.744 169.830 M137.824 170.639 C 138.109 170.823,138.575 170.974,138.860 170.974 C 139.321 170.974,139.321 170.937,138.860 170.639 C 138.575 170.455,138.109 170.304,137.824 170.304 C 137.363 170.304,137.363 170.341,137.824 170.639 M139.580 171.109 C 139.659 171.177,140.190 171.337,140.760 171.464 C 141.517 171.634,141.656 171.602,141.278 171.346 C 140.812 171.030,139.233 170.810,139.580 171.109 M143.178 172.203 C 143.938 172.477,144.793 172.697,145.078 172.691 C 145.363 172.686,144.974 172.457,144.214 172.183 C 143.454 171.910,142.599 171.690,142.314 171.696 C 142.029 171.701,142.418 171.930,143.178 172.203 M148.877 173.889 C 150.984 174.674,152.537 175.130,153.047 175.113 C 153.318 175.104,152.841 174.870,151.986 174.593 C 151.131 174.315,149.954 173.934,149.371 173.746 C 147.833 173.248,147.454 173.358,148.877 173.889 M215.904 176.021 C 215.896 176.226,216.271 177.314,216.738 178.439 C 217.205 179.563,217.594 180.316,217.602 180.110 C 217.610 179.905,217.235 178.817,216.768 177.693 C 216.301 176.568,215.912 175.816,215.904 176.021 M159.240 177.029 C 159.905 177.285,160.682 177.495,160.967 177.495 C 161.252 177.495,160.941 177.285,160.276 177.029 C 159.611 176.773,158.834 176.564,158.549 176.564 C 158.264 176.564,158.575 176.773,159.240 177.029 M162.003 177.893 C 162.288 178.077,162.755 178.228,163.040 178.228 C 163.500 178.228,163.500 178.191,163.040 177.893 C 162.755 177.709,162.288 177.558,162.003 177.558 C 161.543 177.558,161.543 177.595,162.003 177.893 M163.759 178.362 C 163.839 178.431,164.370 178.591,164.940 178.718 C 165.696 178.888,165.836 178.856,165.458 178.600 C 164.991 178.284,163.413 178.064,163.759 178.362 M167.358 179.457 C 168.117 179.731,168.972 179.951,169.257 179.945 C 169.542 179.940,169.154 179.711,168.394 179.437 C 167.634 179.164,166.779 178.944,166.494 178.950 C 166.209 178.955,166.598 179.184,167.358 179.457 M217.806 181.865 C 218.432 187.210,218.643 191.057,218.510 194.646 C 218.371 198.364,218.389 198.542,218.688 196.373 C 219.103 193.354,218.760 184.829,218.122 182.345 C 217.729 180.813,217.673 180.728,217.806 181.865 M178.101 183.205 C 179.440 183.846,181.146 184.888,181.891 185.521 L 183.247 186.670 182.249 185.581 C 181.260 184.500,177.004 182.038,176.125 182.038 C 175.873 182.038,176.763 182.563,178.101 183.205 M297.881 187.737 C 297.882 189.637,297.940 190.370,298.010 189.367 C 298.080 188.363,298.079 186.808,298.008 185.912 C 297.937 185.016,297.880 185.838,297.881 187.737 M183.468 187.690 C 183.712 188.234,183.974 188.491,184.051 188.261 C 184.128 188.031,183.928 187.586,183.608 187.272 C 183.062 186.738,183.053 186.764,183.468 187.690 M105.786 188.860 C 110.298 188.914,117.681 188.914,122.193 188.860 C 126.706 188.805,123.014 188.761,113.990 188.761 C 104.965 188.761,101.274 188.805,105.786 188.860 M96.759 191.623 C 96.782 193.096,96.905 194.767,97.034 195.337 C 97.163 195.908,97.261 194.708,97.252 192.662 C 97.244 190.621,97.120 188.950,96.978 188.949 C 96.835 188.948,96.737 190.151,96.759 191.623 M130.971 189.983 C 131.457 191.482,131.606 191.673,131.606 190.797 C 131.606 190.422,131.375 189.813,131.093 189.444 C 130.626 188.835,130.615 188.884,130.971 189.983 M184.135 189.185 C 184.213 190.082,184.753 190.842,184.777 190.089 C 184.790 189.673,184.646 189.237,184.456 189.119 C 184.266 189.002,184.121 189.031,184.135 189.185 M262.549 191.900 C 262.534 192.289,262.396 192.756,262.242 192.936 C 261.853 193.392,261.119 195.164,261.318 195.164 C 261.660 195.164,262.924 192.058,262.754 191.635 C 262.656 191.391,262.564 191.510,262.549 191.900 M297.270 193.372 C 297.116 194.571,297.074 195.634,297.174 195.735 C 297.435 195.996,297.843 193.017,297.683 192.023 C 297.607 191.557,297.426 192.151,297.270 193.372 M184.496 194.013 C 184.474 194.235,184.355 194.701,184.232 195.049 C 184.059 195.540,184.105 195.594,184.438 195.287 C 184.673 195.070,184.792 194.604,184.701 194.251 C 184.610 193.898,184.518 193.791,184.496 194.013 M132.305 194.394 C 132.293 195.072,133.820 197.295,135.089 198.446 C 136.066 199.332,136.029 199.245,134.826 197.842 C 134.053 196.940,133.171 195.696,132.867 195.079 C 132.562 194.461,132.309 194.152,132.305 194.394 M183.792 196.225 C 183.777 196.523,183.221 197.402,182.556 198.179 C 181.410 199.518,180.842 200.568,181.791 199.593 C 182.978 198.374,184.157 196.521,183.998 196.125 C 183.875 195.821,183.811 195.852,183.792 196.225 M97.468 197.237 C 97.462 197.712,97.591 198.411,97.755 198.791 L 98.052 199.482 98.041 198.791 C 98.036 198.411,97.907 197.712,97.755 197.237 L 97.478 196.373 97.468 197.237 M259.604 197.323 C 259.320 197.750,258.618 198.411,258.042 198.791 C 257.467 199.171,256.996 199.605,256.996 199.756 C 256.994 200.164,259.355 198.220,259.950 197.323 C 260.233 196.896,260.387 196.546,260.292 196.546 C 260.197 196.546,259.887 196.896,259.604 197.323 M296.565 197.774 C 296.435 198.467,296.406 199.112,296.501 199.207 C 296.596 199.302,296.780 198.813,296.910 198.119 C 297.040 197.426,297.069 196.781,296.974 196.686 C 296.879 196.591,296.695 197.081,296.565 197.774 M217.789 200.000 C 217.658 200.597,217.629 201.163,217.724 201.258 C 217.819 201.353,218.004 200.943,218.135 200.345 C 218.266 199.748,218.295 199.182,218.200 199.087 C 218.105 198.992,217.920 199.403,217.789 200.000 M225.718 199.398 C 225.627 199.637,225.593 205.092,225.643 211.521 L 225.734 223.211 227.242 224.058 C 228.072 224.524,228.827 224.828,228.921 224.735 C 229.015 224.641,228.375 224.227,227.499 223.816 L 225.907 223.067 225.907 211.211 L 225.907 199.355 226.857 199.211 L 227.807 199.067 226.846 199.015 C 226.317 198.987,225.810 199.159,225.718 199.398 M137.306 200.142 C 137.876 200.632,138.484 201.034,138.659 201.035 C 139.033 201.037,139.029 201.033,137.478 200.032 L 136.269 199.252 137.306 200.142 M295.740 201.267 C 295.506 202.141,295.376 202.918,295.451 202.992 C 295.526 203.067,295.785 202.420,296.028 201.554 C 296.270 200.689,296.400 199.912,296.317 199.828 C 296.233 199.745,295.974 200.392,295.740 201.267 M230.696 200.532 C 231.335 200.809,232.112 201.029,232.423 201.021 C 232.734 201.013,232.366 200.782,231.606 200.508 C 229.816 199.863,229.194 199.879,230.696 200.532 M98.793 201.947 C 98.792 202.162,99.023 202.784,99.307 203.328 C 99.591 203.873,99.824 204.141,99.825 203.925 C 99.826 203.710,99.595 203.088,99.311 202.544 C 99.027 202.000,98.794 201.731,98.793 201.947 M216.814 203.471 C 215.835 206.412,215.830 206.516,216.769 204.526 C 217.252 203.501,217.601 202.420,217.544 202.125 C 217.487 201.830,217.159 202.436,216.814 203.471 M237.651 202.057 C 237.936 202.250,238.467 202.410,238.831 202.413 C 239.715 202.420,239.439 202.222,238.169 201.938 C 237.412 201.769,237.273 201.801,237.651 202.057 M251.123 202.073 C 250.662 202.370,250.662 202.407,251.123 202.407 C 251.408 202.407,251.874 202.257,252.159 202.073 C 252.619 201.775,252.619 201.738,252.159 201.738 C 251.874 201.738,251.408 201.888,251.123 202.073 M142.958 202.917 C 143.598 203.213,144.453 203.438,144.858 203.419 C 145.415 203.392,145.342 203.314,144.560 203.100 C 142.058 202.414,141.809 202.386,142.958 202.917 M176.073 202.626 C 175.958 202.741,174.805 203.120,173.511 203.469 C 172.216 203.818,171.535 204.113,171.998 204.124 C 172.724 204.142,176.765 202.910,177.173 202.546 C 177.252 202.476,177.084 202.418,176.799 202.418 C 176.514 202.418,176.187 202.512,176.073 202.626 M242.935 202.675 C 244.416 202.740,246.747 202.740,248.116 202.674 C 249.485 202.609,248.273 202.556,245.423 202.556 C 242.573 202.557,241.454 202.610,242.935 202.675 M146.114 203.804 C 146.399 203.986,147.085 204.137,147.640 204.140 C 148.976 204.147,148.685 203.947,146.978 203.686 C 146.037 203.541,145.761 203.579,146.114 203.804 M149.568 204.489 C 150.413 204.761,154.660 204.957,154.375 204.711 C 154.296 204.643,152.988 204.502,151.468 204.399 C 149.874 204.291,149.070 204.329,149.568 204.489 M167.876 204.491 L 165.976 204.723 167.876 204.755 C 168.921 204.773,170.086 204.654,170.466 204.491 L 171.157 204.194 170.466 204.226 C 170.086 204.243,168.921 204.362,167.876 204.491 M156.399 205.089 C 157.212 205.162,158.455 205.161,159.163 205.087 C 159.870 205.013,159.206 204.953,157.686 204.954 C 156.166 204.956,155.587 205.016,156.399 205.089 M161.926 205.089 C 162.739 205.162,163.982 205.161,164.690 205.087 C 165.397 205.013,164.732 204.953,163.212 204.954 C 161.693 204.956,161.114 205.016,161.926 205.089 M101.209 207.039 C 101.209 207.778,105.327 213.073,107.295 214.865 C 109.235 216.632,111.956 218.653,112.394 218.653 C 112.602 218.653,111.983 218.122,111.020 217.474 C 108.475 215.759,105.048 212.294,102.997 209.359 C 102.014 207.951,101.209 206.908,101.209 207.039 M293.338 207.749 C 292.759 209.019,292.814 209.285,293.463 208.358 C 293.762 207.931,293.950 207.412,293.881 207.206 C 293.813 206.999,293.568 207.244,293.338 207.749 M291.217 211.831 C 290.422 213.208,289.997 214.102,290.273 213.817 C 290.854 213.216,293.063 209.326,292.824 209.326 C 292.735 209.326,292.012 210.453,291.217 211.831 M210.886 213.367 C 208.871 215.577,205.866 218.077,202.554 220.301 C 202.002 220.671,202.035 220.676,202.763 220.336 C 205.226 219.185,211.025 214.210,212.784 211.740 C 213.927 210.135,213.497 210.503,210.886 213.367 M287.147 217.231 C 284.723 219.882,281.823 222.190,278.847 223.837 C 278.041 224.283,277.440 224.705,277.510 224.775 C 277.694 224.959,280.907 223.019,283.001 221.459 C 285.028 219.949,290.324 214.507,289.766 214.508 C 289.695 214.508,288.517 215.733,287.147 217.231 M200.000 221.589 C 199.145 222.047,198.568 222.428,198.718 222.437 C 199.085 222.458,201.727 221.101,201.727 220.891 C 201.727 220.662,201.741 220.656,200.000 221.589 M117.637 221.923 C 118.006 222.202,118.463 222.431,118.653 222.431 C 118.843 222.431,118.697 222.202,118.328 221.923 C 117.959 221.644,117.502 221.416,117.312 221.416 C 117.122 221.416,117.268 221.644,117.637 221.923 M195.855 223.330 C 194.810 223.780,194.188 224.145,194.473 224.142 C 194.758 224.140,195.769 223.771,196.718 223.324 C 198.963 222.266,198.316 222.271,195.855 223.330 M122.424 224.021 C 123.548 224.488,124.523 224.814,124.591 224.747 C 124.752 224.586,121.268 223.139,120.766 223.158 C 120.554 223.166,121.300 223.554,122.424 224.021 M188.256 225.923 C 187.877 226.179,188.017 226.211,188.774 226.041 C 190.044 225.757,190.320 225.560,189.436 225.567 C 189.072 225.570,188.541 225.730,188.256 225.923 M130.570 226.635 C 131.235 226.834,132.323 227.056,132.988 227.127 C 134.147 227.251,134.140 227.242,132.815 226.911 C 130.652 226.370,129.020 226.169,130.570 226.635 M185.770 226.435 C 185.670 226.535,184.906 226.761,184.072 226.937 L 182.556 227.257 183.938 227.131 C 185.940 226.947,188.050 226.335,186.845 226.288 C 186.354 226.268,185.871 226.334,185.770 226.435 M234.024 226.780 C 234.784 227.054,235.639 227.274,235.924 227.268 C 236.209 227.263,235.820 227.034,235.060 226.760 C 234.301 226.487,233.446 226.267,233.161 226.273 C 232.876 226.278,233.264 226.506,234.024 226.780 M272.366 226.783 C 270.971 227.421,271.805 227.422,273.276 226.784 C 273.916 226.506,274.206 226.286,273.921 226.294 C 273.636 226.302,272.936 226.522,272.366 226.783 M135.233 227.618 C 135.896 227.918,137.746 228.114,137.450 227.852 C 137.370 227.783,136.684 227.631,135.924 227.515 C 134.961 227.368,134.752 227.400,135.233 227.618 M180.138 227.634 L 179.102 227.898 180.138 227.914 C 180.708 227.923,181.485 227.797,181.865 227.634 L 182.556 227.337 181.865 227.354 C 181.485 227.363,180.708 227.489,180.138 227.634 M237.133 227.634 C 237.513 227.797,238.212 227.926,238.687 227.921 L 239.551 227.910 238.687 227.634 C 238.212 227.482,237.513 227.353,237.133 227.347 L 236.442 227.337 237.133 227.634 M269.603 227.634 C 268.937 227.920,268.939 227.932,269.669 227.955 C 270.085 227.968,270.522 227.824,270.639 227.634 C 270.892 227.225,270.554 227.225,269.603 227.634 M139.378 228.316 C 140.428 228.592,143.587 228.775,143.322 228.545 C 143.243 228.476,142.090 228.334,140.760 228.231 C 139.293 228.117,138.750 228.150,139.378 228.316 M174.784 228.325 L 173.230 228.566 174.784 228.577 C 175.639 228.583,176.805 228.470,177.375 228.325 L 178.411 228.061 177.375 228.072 C 176.805 228.078,175.639 228.192,174.784 228.325 M240.760 228.307 C 241.612 228.597,244.465 228.792,244.185 228.541 C 244.106 228.469,243.109 228.321,241.969 228.212 C 240.626 228.083,240.200 228.116,240.760 228.307 M266.321 228.325 L 265.458 228.601 266.321 228.611 C 266.796 228.617,267.496 228.488,267.876 228.325 L 268.566 228.028 267.876 228.038 C 267.496 228.044,266.796 228.173,266.321 228.325 M145.625 229.082 C 146.369 229.214,152.029 229.302,158.204 229.279 C 164.378 229.256,168.731 229.190,167.876 229.133 C 164.438 228.906,144.366 228.859,145.625 229.082 M170.902 228.914 C 171.332 228.997,171.954 228.994,172.284 228.907 C 172.614 228.821,172.263 228.753,171.503 228.757 C 170.743 228.761,170.472 228.832,170.902 228.914 M244.991 228.908 C 245.324 228.995,245.868 228.995,246.200 228.908 C 246.533 228.821,246.261 228.750,245.596 228.750 C 244.931 228.750,244.659 228.821,244.991 228.908 M250.864 229.273 C 253.096 229.334,256.749 229.334,258.981 229.273 C 261.213 229.213,259.387 229.164,254.922 229.164 C 250.458 229.164,248.631 229.213,250.864 229.273 " stroke="none" fill="#747454" fill-rule="evenodd"></path><path id="path4" d="M147.749 94.853 C 147.619 94.983,145.916 95.220,143.964 95.381 C 142.012 95.541,139.637 95.821,138.687 96.003 L 136.960 96.333 138.860 96.166 C 139.905 96.074,142.237 95.845,144.041 95.657 C 150.584 94.974,163.155 94.889,169.085 95.488 C 172.124 95.795,175.389 96.112,176.339 96.193 L 178.066 96.341 176.511 96.014 C 171.927 95.049,148.498 94.104,147.749 94.853 M135.060 96.718 C 134.600 97.016,134.600 97.053,135.060 97.053 C 135.345 97.053,135.812 96.903,136.097 96.718 C 136.557 96.421,136.557 96.384,136.097 96.384 C 135.812 96.384,135.345 96.534,135.060 96.718 M131.425 97.423 C 131.279 97.659,131.540 97.702,132.182 97.547 C 133.505 97.229,133.630 97.064,132.548 97.064 C 132.052 97.064,131.547 97.226,131.425 97.423 M128.325 98.185 C 124.957 99.344,124.690 99.633,127.807 98.745 C 128.472 98.556,129.482 98.271,130.052 98.113 C 130.990 97.853,131.006 97.826,130.225 97.827 C 129.750 97.828,128.895 97.989,128.325 98.185 M185.147 98.155 C 185.812 98.336,186.744 98.548,187.219 98.625 C 187.730 98.709,187.801 98.687,187.392 98.572 C 187.012 98.466,186.554 98.238,186.373 98.067 C 186.193 97.895,185.571 97.771,184.991 97.790 L 183.938 97.825 185.147 98.155 M263.570 98.423 C 263.151 99.205,263.053 188.185,263.472 187.766 C 263.614 187.624,263.808 167.430,263.903 142.890 L 264.076 98.273 281.081 98.183 L 298.085 98.094 298.278 98.874 C 298.661 100.422,298.206 190.738,297.803 193.264 C 297.222 196.909,296.814 199.006,296.425 200.345 C 295.692 202.871,295.627 203.380,296.181 202.245 C 296.459 201.675,296.694 200.890,296.703 200.501 C 296.711 200.111,296.859 199.645,297.030 199.465 C 297.202 199.284,297.438 198.359,297.555 197.409 C 297.672 196.459,297.939 194.594,298.150 193.264 C 298.704 189.761,298.951 98.882,298.408 98.228 C 297.686 97.358,264.039 97.546,263.570 98.423 M188.428 99.136 C 188.546 99.326,188.982 99.471,189.399 99.458 C 190.128 99.434,190.131 99.423,189.465 99.136 C 188.514 98.728,188.176 98.728,188.428 99.136 M190.846 99.833 C 191.226 100.000,192.703 100.628,194.128 101.229 C 195.553 101.830,197.560 102.796,198.588 103.377 C 199.616 103.957,200.351 104.261,200.222 104.052 C 200.092 103.842,199.562 103.456,199.043 103.194 C 198.525 102.932,197.789 102.534,197.409 102.309 C 196.624 101.844,193.853 100.621,192.055 99.946 C 190.715 99.443,189.756 99.353,190.846 99.833 M119.948 101.204 C 118.761 101.753,117.789 102.299,117.789 102.417 C 117.789 102.535,117.906 102.563,118.048 102.480 C 118.391 102.280,121.965 100.674,122.625 100.424 C 123.086 100.249,123.086 100.226,122.625 100.216 C 122.340 100.210,121.136 100.654,119.948 101.204 M115.973 103.252 C 114.592 104.137,114.338 104.496,115.544 103.856 C 116.991 103.089,117.678 102.598,117.271 102.621 C 117.081 102.632,116.497 102.916,115.973 103.252 M200.691 104.471 C 200.691 104.558,201.429 105.127,202.332 105.734 C 203.234 106.341,204.400 107.232,204.922 107.715 C 205.445 108.197,205.872 108.437,205.872 108.248 C 205.872 108.059,205.240 107.447,204.468 106.888 C 203.695 106.329,202.873 105.717,202.641 105.527 C 201.994 104.998,200.691 104.292,200.691 104.471 M111.865 105.797 C 111.361 106.218,110.584 106.839,110.138 107.176 C 107.407 109.241,101.443 116.411,101.997 116.965 C 102.089 117.057,102.668 116.309,103.284 115.302 C 105.384 111.867,108.105 109.073,112.781 105.551 C 113.161 105.265,113.316 105.031,113.126 105.031 C 112.936 105.030,112.369 105.375,111.865 105.797 M208.094 110.583 C 209.161 111.844,210.749 113.943,211.624 115.246 C 212.498 116.550,213.120 117.341,213.005 117.005 C 212.618 115.868,210.104 112.447,208.124 110.363 L 206.154 108.290 208.094 110.583 M100.892 119.013 C 99.871 121.322,100.020 121.795,101.064 119.561 C 101.541 118.541,101.860 117.634,101.772 117.546 C 101.684 117.458,101.288 118.119,100.892 119.013 M213.545 118.739 C 214.029 119.880,214.739 120.721,214.347 119.689 C 214.202 119.309,214.006 118.726,213.910 118.394 C 213.815 118.061,213.602 117.789,213.439 117.789 C 213.275 117.789,213.323 118.217,213.545 118.739 M148.187 120.189 C 147.142 120.308,149.940 120.406,154.404 120.409 C 159.446 120.412,161.540 120.326,159.931 120.183 C 156.734 119.898,150.731 119.902,148.187 120.189 M143.178 121.103 L 141.796 121.581 143.351 121.368 C 144.206 121.251,145.216 121.030,145.596 120.876 C 146.852 120.368,144.725 120.568,143.178 121.103 M163.385 120.851 C 163.860 121.007,165.104 121.229,166.149 121.344 C 167.405 121.482,167.733 121.454,167.118 121.261 C 166.606 121.100,165.363 120.878,164.355 120.768 C 163.192 120.641,162.837 120.671,163.385 120.851 M214.510 120.772 C 214.506 121.412,215.516 123.540,215.531 122.924 C 215.538 122.613,215.312 121.914,215.028 121.369 C 214.744 120.825,214.511 120.556,214.510 120.772 M168.566 121.934 C 168.851 122.119,169.396 122.261,169.775 122.250 L 170.466 122.231 169.775 121.934 C 168.743 121.491,167.880 121.491,168.566 121.934 M137.306 123.864 L 136.269 124.755 137.392 124.012 C 138.009 123.603,138.515 123.202,138.515 123.120 C 138.515 122.861,138.368 122.951,137.306 123.864 M172.905 123.478 C 173.273 123.757,173.808 123.989,174.093 123.994 C 174.378 123.999,174.166 123.770,173.622 123.487 C 172.362 122.830,172.042 122.826,172.905 123.478 M215.848 124.773 C 216.007 125.732,216.056 125.781,216.165 125.090 C 216.236 124.640,216.151 124.130,215.977 123.956 C 215.785 123.765,215.735 124.087,215.848 124.773 M135.403 125.472 C 134.392 126.992,134.314 127.273,135.186 126.252 C 135.956 125.351,136.301 124.698,136.007 124.698 C 135.958 124.698,135.686 125.046,135.403 125.472 M175.820 124.964 C 175.820 125.116,176.263 125.501,176.805 125.821 C 178.106 126.590,179.899 128.429,180.539 129.652 C 180.821 130.192,181.141 130.546,181.249 130.438 C 181.593 130.094,178.608 126.533,177.189 125.593 C 176.436 125.095,175.820 124.812,175.820 124.964 M98.268 128.152 C 97.879 131.157,97.915 135.761,98.349 138.515 C 98.652 140.434,98.710 140.556,98.747 139.355 C 98.771 138.583,98.619 137.028,98.409 135.901 C 98.121 134.361,98.132 132.984,98.454 130.360 C 98.689 128.439,98.809 126.651,98.720 126.387 C 98.631 126.123,98.428 126.917,98.268 128.152 M216.259 127.009 C 216.337 127.906,216.877 128.666,216.901 127.913 C 216.915 127.497,216.770 127.060,216.580 126.943 C 216.390 126.826,216.246 126.855,216.259 127.009 M133.752 128.302 C 132.055 132.026,134.762 139.078,138.604 140.941 C 139.304 141.281,139.296 141.249,138.515 140.598 C 135.932 138.449,135.060 137.280,134.128 134.715 C 133.585 133.221,133.542 129.118,134.063 128.597 C 134.274 128.385,134.385 128.026,134.309 127.798 C 134.233 127.569,133.982 127.796,133.752 128.302 M181.347 131.174 C 181.347 131.389,181.503 131.662,181.693 131.779 C 181.883 131.896,182.038 132.729,182.038 133.630 C 182.038 136.245,180.952 136.097,200.080 136.097 C 219.557 136.097,217.933 136.382,217.337 133.070 L 216.981 131.088 217.040 133.333 L 217.098 135.579 200.022 135.668 C 181.230 135.767,182.406 135.911,182.378 133.506 C 182.369 132.746,182.133 131.823,181.854 131.454 C 181.575 131.085,181.347 130.959,181.347 131.174 M98.802 141.278 C 98.802 141.563,98.952 142.029,99.136 142.314 C 99.434 142.775,99.471 142.775,99.471 142.314 C 99.471 142.029,99.321 141.563,99.136 141.278 C 98.839 140.818,98.802 140.818,98.802 141.278 M139.551 141.413 C 139.551 141.519,140.017 141.847,140.587 142.142 C 141.157 142.436,141.623 142.536,141.623 142.363 C 141.623 142.191,141.351 141.954,141.019 141.836 C 140.687 141.719,140.220 141.532,139.983 141.422 C 139.745 141.311,139.551 141.307,139.551 141.413 M142.786 143.180 C 143.330 143.464,144.029 143.690,144.340 143.683 C 144.651 143.675,144.382 143.442,143.743 143.164 C 142.223 142.505,141.513 142.516,142.786 143.180 M150.604 145.619 C 152.599 146.263,154.387 146.741,154.577 146.681 C 154.767 146.621,153.756 146.224,152.332 145.799 C 150.907 145.373,149.290 144.882,148.739 144.706 C 148.189 144.531,147.567 144.400,147.358 144.417 C 147.149 144.433,148.610 144.974,150.604 145.619 M100.200 145.681 C 100.162 146.279,102.008 150.259,102.323 150.259 C 102.465 150.259,102.135 149.365,101.590 148.273 C 101.045 147.180,100.516 146.054,100.413 145.769 C 100.302 145.458,100.216 145.423,100.200 145.681 M157.463 147.704 C 158.861 148.182,160.063 148.515,160.135 148.443 C 160.305 148.273,156.007 146.800,155.395 146.820 C 155.135 146.828,156.066 147.226,157.463 147.704 M163.212 149.568 C 164.163 149.977,164.501 149.977,164.249 149.568 C 164.131 149.378,163.695 149.234,163.278 149.247 C 162.549 149.270,162.546 149.282,163.212 149.568 M165.976 150.442 C 166.736 150.716,167.591 150.930,167.876 150.918 C 168.603 150.889,166.129 149.969,165.285 149.955 C 164.905 149.949,165.216 150.168,165.976 150.442 M102.611 150.722 C 102.581 151.144,104.438 153.697,104.780 153.706 C 104.940 153.710,104.706 153.268,104.262 152.723 C 103.818 152.179,103.269 151.440,103.043 151.083 C 102.816 150.725,102.622 150.562,102.611 150.722 M168.739 151.295 C 168.857 151.485,169.293 151.638,169.710 151.635 C 170.325 151.631,170.369 151.568,169.948 151.295 C 169.268 150.856,168.467 150.856,168.739 151.295 M174.082 152.862 C 176.071 153.501,177.764 153.957,177.845 153.876 C 177.926 153.796,177.775 153.660,177.511 153.574 C 173.731 152.355,171.277 151.646,170.914 151.671 C 170.668 151.687,172.093 152.223,174.082 152.862 M106.044 155.366 C 106.656 156.179,107.723 157.267,108.414 157.784 C 109.106 158.300,109.982 159.009,110.362 159.360 C 111.709 160.604,117.735 164.246,118.003 163.978 C 118.075 163.906,117.706 163.628,117.184 163.361 C 113.706 161.582,108.956 158.061,106.256 155.261 L 104.930 153.886 106.044 155.366 M179.573 154.590 C 180.213 154.868,180.998 155.095,181.318 155.095 C 181.638 155.095,182.070 155.265,182.278 155.473 C 182.485 155.681,182.942 155.795,183.293 155.728 C 183.688 155.652,183.342 155.430,182.379 155.144 C 181.527 154.890,180.559 154.542,180.229 154.370 C 179.899 154.199,179.355 154.065,179.020 154.072 C 178.673 154.080,178.911 154.303,179.573 154.590 M190.674 158.053 C 192.098 158.516,193.418 158.843,193.606 158.781 C 193.999 158.650,189.250 157.156,188.547 157.189 C 188.292 157.201,189.249 157.590,190.674 158.053 M196.000 159.773 C 197.125 160.240,198.213 160.612,198.418 160.600 C 198.811 160.577,197.872 160.123,195.855 159.362 C 193.753 158.568,193.866 158.887,196.000 159.773 M200.374 161.434 C 200.453 161.501,201.606 162.142,202.936 162.859 C 207.948 165.561,211.346 168.491,214.129 172.510 C 215.713 174.797,216.038 174.868,214.629 172.618 C 212.160 168.679,208.004 165.152,202.198 162.071 C 200.969 161.419,199.922 161.053,200.374 161.434 M120.041 165.051 C 120.465 165.515,125.106 167.237,125.330 167.013 C 125.417 166.926,125.271 166.780,125.006 166.689 C 124.571 166.537,122.140 165.615,120.380 164.933 C 119.881 164.739,119.787 164.772,120.041 165.051 M127.979 168.066 C 129.309 168.520,130.630 168.884,130.915 168.874 C 131.200 168.865,130.345 168.485,129.016 168.031 C 127.686 167.577,126.364 167.213,126.079 167.223 C 125.794 167.232,126.649 167.611,127.979 168.066 M134.715 170.085 C 135.190 170.376,135.919 170.620,136.335 170.627 C 136.752 170.634,137.188 170.794,137.306 170.984 C 137.423 171.174,137.937 171.317,138.449 171.300 L 139.378 171.270 138.342 170.930 C 137.772 170.743,136.839 170.463,136.269 170.309 C 135.699 170.154,134.922 169.921,134.542 169.791 C 134.079 169.633,134.136 169.730,134.715 170.085 M139.699 171.635 C 139.803 171.804,140.317 172.020,140.842 172.115 C 141.367 172.211,142.943 172.624,144.345 173.032 C 145.746 173.441,146.966 173.702,147.055 173.613 C 147.145 173.523,146.542 173.261,145.716 173.030 C 144.890 172.799,143.295 172.322,142.171 171.970 C 139.883 171.253,139.424 171.191,139.699 171.635 M150.903 174.970 C 151.542 175.248,152.349 175.475,152.696 175.475 C 153.043 175.475,153.423 175.630,153.541 175.820 C 153.658 176.010,154.172 176.158,154.684 176.149 C 155.633 176.132,155.677 176.151,151.444 174.782 C 149.884 174.277,149.564 174.389,150.903 174.970 M155.959 176.511 C 156.076 176.701,156.513 176.846,156.929 176.832 C 157.659 176.809,157.661 176.797,156.995 176.511 C 156.044 176.103,155.706 176.103,155.959 176.511 M158.377 177.202 C 158.494 177.392,158.931 177.537,159.347 177.523 C 160.076 177.500,160.079 177.488,159.413 177.202 C 158.462 176.794,158.124 176.794,158.377 177.202 M161.140 178.078 C 161.710 178.339,162.487 178.553,162.867 178.553 C 163.247 178.553,162.936 178.329,162.176 178.056 C 160.442 177.431,159.759 177.446,161.140 178.078 M216.926 177.988 C 216.926 178.293,217.055 178.623,217.212 178.720 C 217.370 178.817,217.698 179.798,217.942 180.899 C 218.546 183.630,218.594 183.745,218.626 182.551 C 218.641 181.979,218.348 180.677,217.976 179.658 C 217.233 177.626,216.926 177.137,216.926 177.988 M163.875 178.883 C 163.976 179.047,164.568 179.278,165.190 179.396 C 165.812 179.515,167.176 179.862,168.221 180.168 C 170.750 180.909,172.201 181.151,170.466 180.542 C 166.188 179.041,163.564 178.381,163.875 178.883 M172.193 181.347 C 172.311 181.537,172.747 181.682,173.164 181.668 C 173.893 181.645,173.896 181.633,173.230 181.347 C 172.279 180.939,171.941 180.939,172.193 181.347 M174.580 181.987 C 174.680 182.149,175.505 182.559,176.414 182.899 C 177.322 183.239,178.264 183.673,178.506 183.863 C 178.748 184.053,179.037 184.118,179.148 184.007 C 179.259 183.895,178.595 183.472,177.672 183.066 C 176.749 182.659,175.723 182.184,175.393 182.010 C 174.644 181.613,174.344 181.605,174.580 181.987 M218.906 187.428 C 219.007 189.498,219.147 191.256,219.217 191.336 C 219.497 191.653,219.312 184.595,219.028 184.146 C 218.846 183.859,218.797 185.189,218.906 187.428 M180.782 185.181 C 181.340 185.674,182.255 186.607,182.814 187.253 C 183.721 188.301,183.756 188.316,183.141 187.392 C 182.452 186.358,181.304 185.235,180.297 184.612 C 180.005 184.431,180.223 184.687,180.782 185.181 M96.378 191.969 C 96.381 193.821,96.503 195.525,96.649 195.754 C 96.795 195.984,96.852 194.606,96.775 192.692 C 96.667 190.002,96.743 189.143,97.108 188.912 C 97.481 188.676,97.453 188.610,96.978 188.606 C 96.442 188.602,96.374 188.988,96.378 191.969 M130.897 188.928 C 131.172 189.102,131.501 189.993,131.628 190.909 L 131.859 192.573 131.905 191.002 C 131.950 189.489,131.523 188.595,130.760 188.606 C 130.560 188.609,130.622 188.754,130.897 188.928 M183.776 189.292 C 183.776 189.577,183.926 190.043,184.111 190.328 C 184.408 190.789,184.445 190.789,184.445 190.328 C 184.445 190.043,184.295 189.577,184.111 189.292 C 183.813 188.831,183.776 188.831,183.776 189.292 M218.927 194.991 C 218.671 198.615,217.721 202.999,216.785 204.876 C 216.481 205.485,216.306 206.059,216.397 206.150 C 216.628 206.381,217.962 203.193,217.962 202.410 C 217.962 202.057,218.117 201.672,218.307 201.554 C 218.497 201.437,218.653 200.907,218.653 200.377 C 218.653 199.846,218.815 198.947,219.013 198.379 C 219.211 197.810,219.328 196.038,219.272 194.441 L 219.171 191.537 218.927 194.991 M260.784 194.746 C 259.781 196.648,257.564 198.997,256.017 199.797 C 255.415 200.108,254.922 200.447,254.922 200.549 C 254.922 201.024,257.888 198.994,259.073 197.708 C 260.316 196.360,262.027 193.518,261.758 193.249 C 261.692 193.183,261.253 193.856,260.784 194.746 M183.962 194.325 C 183.835 194.831,183.809 195.323,183.904 195.418 C 183.999 195.513,184.181 195.177,184.308 194.671 C 184.435 194.164,184.461 193.672,184.366 193.577 C 184.271 193.483,184.090 193.819,183.962 194.325 M132.656 194.476 C 132.640 195.095,135.449 198.602,136.339 199.074 C 136.681 199.255,137.309 199.720,137.736 200.106 C 138.163 200.493,138.593 200.728,138.692 200.628 C 138.791 200.529,138.282 200.039,137.560 199.538 C 135.873 198.369,133.908 196.313,133.214 194.991 C 132.915 194.421,132.664 194.189,132.656 194.476 M97.111 197.364 C 97.065 198.321,98.442 202.882,98.699 202.625 C 98.769 202.555,98.515 201.509,98.135 200.299 C 97.755 199.090,97.380 197.712,97.301 197.237 C 97.168 196.431,97.155 196.440,97.111 197.364 M181.203 199.054 C 180.269 200.002,179.803 200.615,180.167 200.417 C 180.980 199.975,183.256 197.642,183.051 197.462 C 182.969 197.391,182.137 198.107,181.203 199.054 M225.573 198.941 C 225.343 199.372,225.243 203.749,225.293 211.290 L 225.371 222.971 225.564 210.881 C 225.783 197.131,225.646 198.478,226.799 198.767 C 227.378 198.913,227.614 198.865,227.470 198.632 C 227.103 198.039,225.956 198.226,225.573 198.941 M228.969 199.495 C 230.489 200.155,231.199 200.144,229.926 199.480 C 229.382 199.196,228.682 198.970,228.372 198.977 C 228.061 198.985,228.330 199.218,228.969 199.495 M234.024 201.036 C 234.975 201.445,235.313 201.445,235.060 201.036 C 234.943 200.846,234.506 200.702,234.090 200.715 C 233.360 200.739,233.358 200.750,234.024 201.036 M141.315 201.899 C 146.585 204.763,167.772 205.786,173.148 203.436 C 173.785 203.158,173.708 203.130,172.712 203.280 C 164.928 204.451,160.678 204.658,154.649 204.160 C 149.672 203.749,142.526 202.377,141.813 201.696 C 141.633 201.523,141.244 201.388,140.950 201.396 C 140.626 201.404,140.770 201.603,141.315 201.899 M177.358 201.669 C 177.177 201.827,176.354 202.148,175.528 202.384 C 174.702 202.619,174.107 202.892,174.206 202.992 C 174.401 203.186,176.486 202.522,177.893 201.818 C 178.394 201.567,178.532 201.385,178.221 201.384 C 177.927 201.383,177.538 201.511,177.358 201.669 M237.824 201.780 C 240.291 202.449,249.404 202.545,251.336 201.921 C 252.451 201.561,252.613 201.455,251.813 201.606 C 250.231 201.906,239.995 201.926,237.997 201.633 L 236.442 201.405 237.824 201.780 M294.351 206.323 C 294.104 206.930,293.600 208.032,293.229 208.771 C 292.859 209.510,292.631 210.190,292.722 210.281 C 292.813 210.372,293.228 209.689,293.644 208.764 C 294.061 207.838,294.560 206.732,294.755 206.304 C 294.949 205.877,295.038 205.458,294.953 205.373 C 294.868 205.288,294.597 205.715,294.351 206.323 M100.173 206.025 C 100.173 206.366,101.650 208.655,101.784 208.521 C 101.863 208.442,101.595 207.814,101.189 207.125 C 100.518 205.987,100.173 205.614,100.173 206.025 M213.984 210.126 C 213.227 211.301,211.287 213.580,209.672 215.190 C 208.057 216.800,207.217 217.777,207.806 217.363 C 210.108 215.739,216.003 208.634,215.481 208.111 C 215.414 208.045,214.740 208.951,213.984 210.126 M101.911 209.063 C 101.905 209.204,102.124 209.592,102.399 209.927 C 102.673 210.262,103.489 211.259,104.212 212.144 C 104.935 213.028,106.477 214.583,107.637 215.598 C 110.721 218.295,111.274 218.720,111.456 218.538 C 111.546 218.448,110.949 217.910,110.128 217.342 C 108.600 216.286,104.998 212.658,103.027 210.190 C 102.420 209.430,101.918 208.923,101.911 209.063 M290.608 213.428 C 289.622 214.884,287.524 217.386,285.945 218.989 C 284.366 220.592,283.385 221.681,283.765 221.409 C 285.391 220.248,289.690 215.533,291.105 213.360 C 293.219 210.114,292.815 210.169,290.608 213.428 M204.150 219.537 C 201.955 221.039,201.531 221.506,203.156 220.631 C 204.676 219.812,206.554 218.482,206.559 218.221 C 206.565 217.869,206.665 217.814,204.150 219.537 M111.917 218.823 C 111.917 219.080,115.071 221.141,115.227 220.985 C 115.310 220.902,114.600 220.349,113.648 219.757 C 112.696 219.166,111.917 218.745,111.917 218.823 M115.907 221.374 C 116.487 221.909,119.527 223.489,119.960 223.481 C 120.191 223.477,119.377 222.933,118.151 222.272 C 115.896 221.057,115.309 220.822,115.907 221.374 M199.309 222.303 C 198.074 222.935,197.212 223.461,197.394 223.471 C 197.952 223.501,201.727 221.658,201.727 221.356 C 201.727 221.199,201.688 221.089,201.641 221.112 C 201.593 221.134,200.544 221.670,199.309 222.303 M281.865 222.429 C 281.390 222.784,279.836 223.709,278.411 224.485 C 276.986 225.262,275.994 225.899,276.207 225.902 C 276.741 225.909,280.883 223.578,282.087 222.594 C 283.263 221.632,283.097 221.508,281.865 222.429 M225.798 223.593 C 226.026 223.961,230.375 226.049,230.537 225.869 C 230.603 225.795,229.524 225.187,228.138 224.518 C 226.753 223.850,225.700 223.433,225.798 223.593 M120.725 223.726 C 121.230 224.221,124.285 225.296,124.750 225.141 C 124.968 225.068,124.385 224.759,123.454 224.453 C 122.523 224.148,121.451 223.783,121.071 223.642 C 120.617 223.475,120.499 223.503,120.725 223.726 M194.350 224.293 C 193.238 224.692,192.499 225.076,192.709 225.146 C 193.127 225.285,196.174 224.240,196.701 223.777 C 197.187 223.351,196.642 223.470,194.350 224.293 M190.846 225.561 C 190.180 225.848,190.183 225.859,190.912 225.882 C 191.329 225.896,191.765 225.751,191.883 225.561 C 192.135 225.153,191.797 225.153,190.846 225.561 M188.256 226.252 C 187.795 226.550,187.795 226.587,188.256 226.587 C 188.541 226.587,189.007 226.436,189.292 226.252 C 189.752 225.955,189.752 225.917,189.292 225.917 C 189.007 225.917,188.541 226.068,188.256 226.252 M130.570 226.984 C 131.560 227.444,134.174 227.962,136.442 228.147 L 137.997 228.274 136.442 227.973 C 135.587 227.808,134.188 227.517,133.333 227.327 C 129.974 226.578,129.595 226.531,130.570 226.984 M186.056 226.840 C 185.923 226.973,184.925 227.212,183.840 227.371 C 182.754 227.530,181.088 227.788,180.138 227.944 L 178.411 228.227 180.204 228.276 C 181.190 228.303,182.093 228.169,182.211 227.979 C 182.328 227.789,182.998 227.632,183.699 227.629 C 185.061 227.623,188.275 226.639,187.018 226.613 C 186.622 226.604,186.189 226.707,186.056 226.840 M233.839 227.144 C 234.497 227.429,235.352 227.600,235.739 227.523 C 236.267 227.417,236.210 227.371,235.513 227.335 C 235.001 227.310,234.487 227.133,234.370 226.943 C 234.252 226.753,233.816 226.604,233.399 226.611 C 232.805 226.622,232.899 226.736,233.839 227.144 M272.884 226.933 C 272.599 227.095,271.589 227.465,270.639 227.755 C 269.352 228.148,269.149 228.288,269.841 228.303 C 270.353 228.315,270.867 228.169,270.984 227.979 C 271.102 227.789,271.539 227.628,271.955 227.622 C 272.371 227.615,273.100 227.387,273.575 227.116 C 274.062 226.837,274.213 226.626,273.921 226.630 C 273.636 226.635,273.169 226.771,272.884 226.933 M236.808 228.012 C 236.914 228.184,237.640 228.325,238.420 228.325 C 240.174 228.325,240.028 228.135,238.083 227.887 C 237.245 227.780,236.698 227.834,236.808 228.012 M138.883 228.692 C 139.340 228.981,143.299 229.172,142.976 228.890 C 142.897 228.820,141.833 228.677,140.611 228.571 C 139.223 228.451,138.574 228.496,138.883 228.692 M175.475 228.670 L 173.575 228.903 175.714 228.959 C 176.890 228.990,177.948 228.860,178.066 228.670 C 178.183 228.480,178.076 228.350,177.827 228.381 C 177.578 228.412,176.520 228.542,175.475 228.670 M240.251 228.685 C 240.363 228.867,241.249 229.016,242.220 229.016 C 244.410 229.016,244.269 228.832,241.871 228.561 C 240.746 228.434,240.125 228.481,240.251 228.685 M266.839 228.670 L 265.803 228.934 266.839 228.969 C 267.409 228.989,268.109 228.854,268.394 228.670 C 269.035 228.255,268.469 228.255,266.839 228.670 M144.895 229.407 C 145.775 229.949,170.280 229.934,171.848 229.390 C 172.684 229.100,172.454 229.070,170.664 229.237 C 167.600 229.521,147.678 229.509,145.769 229.221 C 144.464 229.024,144.324 229.054,144.895 229.407 M245.250 229.390 C 246.410 229.897,263.009 229.906,264.421 229.401 C 265.291 229.090,265.153 229.066,263.558 229.256 C 261.293 229.525,247.835 229.490,245.808 229.209 C 244.572 229.038,244.500 229.062,245.250 229.390 " stroke="none" fill="#9d9d70" fill-rule="evenodd"></path></g></svg>